<?xml version="1.0" standalone="no"?>
<!DOCTYPE svg PUBLIC "-//W3C//DTD SVG 1.0//EN" "http://www.w3.org/TR/2001/REC-SVG-20010904/DTD/svg10.dtd">
<svg xmlns="http://www.w3.org/2000/svg" xmlns:xlink="http://www.w3.org/1999/xlink" id="body_1" width="28" height="28">

<defs>
    <clipPath  id="1">

    <path id=""  clip-rule="evenodd" transform="matrix(1 0 0 1 0 0)"  d="M21.75 -0.75L21.75 21L21.75 21L0 21L0 21L0 -0.75L0 -0.75L21.75 -0.75z" />    </clipPath>
</defs>

<g transform="matrix(1.3333 0 0 1.3333 0 0)">
	<g clip-path="url(#1)" >
    <path id=""  transform="matrix(1 0 0 -1 0 21)"  d="M0.35617447 9.5466L0.35617447 9.5466L0.35617447 9.5466L0.35617447 9.5466L0.35617447 9.5466L0.35617447 12.202799L0.35617447 12.202799L0.35617447 12.202799L0.35617447 12.202799L16.293674 12.202799L16.293674 12.202799L8.988976 19.5075L8.988976 19.5075L10.874925 21.39345L10.874925 21.39345L21.393677 10.874701L21.393677 10.874701L10.874925 0.35595673L10.874925 0.35595673L8.988976 2.2418926L8.988976 2.2418926L16.293674 9.5466L16.293674 9.5466L16.293674 9.5466L16.293674 9.5466L0.35617447 9.5466z" stroke="#FFFFFF" stroke-width="1" fill="#11131E" fill-rule="nonzero" fill-opacity="0.2" />
	</g>
</g>
</svg>